<?xml version="1.0" standalone="no"?>
<!DOCTYPE svg PUBLIC "-//W3C//DTD SVG 20010904//EN"
 "http://www.w3.org/TR/2001/REC-SVG-20010904/DTD/svg10.dtd">
<svg version="1.0" xmlns="http://www.w3.org/2000/svg"
 width="260.000000pt" height="300.000000pt" viewBox="0 0 260.000000 300.000000"
 preserveAspectRatio="xMidYMid meet">

<g transform="translate(0.000000,300.000000) scale(0.100000,-0.100000)"
fill="#000000" stroke="none">
<path d="M1430 2708 c31 -17 30 -58 -2 -127 -12 -25 -20 -50 -19 -55 1 -5 -4
-5 -11 1 -7 6 -32 14 -55 18 -24 4 -43 10 -43 13 0 4 11 25 25 47 35 57 33 75
-8 75 -29 0 -36 -5 -51 -37 -10 -21 -20 -53 -22 -72 -7 -56 -20 -65 -42 -30
-11 17 -11 20 0 13 7 -4 4 3 -7 17 -11 13 -22 26 -24 29 -2 3 0 -20 3 -51 6
-44 4 -58 -8 -69 -14 -11 -18 -7 -32 26 -19 45 -20 64 -9 118 l8 39 -33 -24
c-65 -48 -74 -113 -28 -203 16 -31 18 -44 9 -63 -14 -31 -24 -24 -68 44 -35
55 -43 96 -28 142 9 28 -3 26 -45 -10 -31 -26 -33 -31 -22 -50 8 -12 9 -18 4
-15 -6 3 -13 -1 -16 -10 -4 -11 1 -18 14 -21 11 -3 20 -10 20 -17 0 -6 11 -33
25 -59 14 -26 23 -52 20 -57 -3 -6 -1 -10 4 -10 6 0 20 -9 31 -20 17 -17 20
-33 20 -117 l0 -98 -26 43 c-26 44 -46 53 -24 12 11 -21 10 -22 -19 -18 -18 3
-31 0 -32 -6 0 -6 -4 -1 -9 12 -5 12 -14 22 -20 22 -13 0 16 -44 30 -46 6 -1
15 -2 20 -3 6 0 10 -8 10 -16 0 -8 -4 -15 -10 -15 -5 0 -10 5 -10 10 0 6 -6
10 -14 10 -7 0 -22 12 -31 28 -10 15 -24 31 -32 35 -8 5 -11 17 -7 33 4 15 2
24 -6 24 -7 0 -10 -7 -6 -15 3 -10 -1 -18 -11 -22 -9 -4 -19 -1 -21 5 -2 7
-10 12 -18 12 -9 0 -12 5 -9 10 3 6 2 10 -4 10 -5 0 -13 9 -16 20 -3 11 -14
20 -23 20 -10 0 -13 3 -7 8 16 11 3 92 -15 92 -13 0 -22 -57 -15 -87 10 -49
71 -119 170 -198 95 -75 132 -93 81 -39 -14 16 -23 30 -21 32 2 3 16 -10 31
-27 14 -17 31 -28 37 -25 7 3 5 0 -3 -8 -10 -8 -15 -29 -14 -61 1 -34 -1 -45
-10 -39 -6 5 -21 12 -34 15 -18 4 -22 2 -18 -9 3 -8 1 -14 -4 -14 -6 0 -10 4
-10 10 0 5 -5 9 -11 7 -6 -1 -14 4 -16 11 -3 8 2 10 14 6 15 -5 15 -4 -2 7
-30 18 -31 19 -16 28 9 6 1 17 -30 40 -24 17 -48 31 -53 31 -6 0 -4 -5 4 -10
8 -5 11 -10 6 -10 -17 0 17 -30 35 -30 10 0 21 -4 24 -10 3 -5 -2 -10 -13 -10
-26 0 -75 47 -68 65 3 10 -15 35 -48 68 -29 28 -55 58 -58 66 -6 19 -43 6 -72
-26 -17 -18 -26 -43 -31 -86 -6 -58 -5 -61 22 -84 15 -13 36 -28 45 -33 14 -9
16 -7 11 7 -5 13 -3 15 11 10 10 -4 20 -7 23 -7 3 0 0 -7 -7 -15 -10 -13 -9
-15 9 -15 12 0 19 -4 16 -10 -3 -5 7 -13 22 -16 15 -4 37 -13 48 -20 11 -7 40
-18 65 -24 52 -14 116 -45 126 -61 22 -36 -96 -19 -182 27 -27 15 -77 42 -112
60 -104 56 -165 43 -178 -38 -8 -48 17 -103 56 -123 30 -15 33 -15 46 2 11 14
14 15 15 3 1 -8 1 -18 1 -21 -2 -15 141 -43 273 -54 43 -3 82 -8 84 -11 8 -8
-21 -24 -44 -24 -18 -1 -18 -2 3 -11 27 -10 72 13 72 38 0 8 5 23 10 34 11 19
11 19 49 -1 42 -21 66 -56 31 -45 -23 7 -26 -4 -7 -24 10 -11 9 -13 -6 -8 -11
4 -16 3 -12 -3 10 -17 35 -11 35 8 1 15 2 15 12 -2 9 -15 7 -22 -12 -36 l-23
-17 35 -7 c38 -7 59 -42 32 -53 -16 -6 -9 -23 9 -19 7 1 9 1 5 -1 -5 -3 -8
-16 -8 -29 0 -18 -9 -27 -32 -37 -24 -10 -35 -11 -40 -3 -5 7 -8 5 -8 -6 0
-21 -14 -30 -35 -22 -15 6 -14 8 1 25 9 11 23 19 30 19 7 0 16 9 19 20 3 11
13 20 21 20 8 0 13 4 10 9 -3 4 -20 7 -38 7 -18 -1 -50 1 -70 5 -21 3 -39 3
-40 -1 -2 -4 -26 -19 -55 -33 -95 -48 -173 -45 -173 7 0 25 34 46 75 46 13 0
26 4 29 8 3 5 -18 5 -47 0 -29 -5 -67 -6 -84 -3 -27 5 -33 11 -33 31 0 24 -1
24 -25 8 -13 -8 -28 -13 -33 -10 -6 3 -15 0 -21 -8 -14 -17 17 -39 77 -56 32
-8 42 -16 42 -31 0 -51 67 -125 143 -159 40 -18 60 -21 110 -15 34 3 80 13
102 22 43 18 97 62 90 73 -2 4 2 7 10 7 8 0 15 -4 15 -9 0 -11 -78 -88 -89
-88 -6 0 -13 -20 -17 -45 -6 -40 -11 -49 -49 -71 -24 -14 -49 -32 -57 -41 -12
-15 -10 -16 20 -10 19 4 42 17 51 29 l18 22 27 -42 c29 -47 58 -66 86 -57 30
9 24 23 -7 17 -21 -4 -25 -2 -20 12 4 9 2 28 -4 43 -9 23 -7 30 13 46 l23 18
-22 -6 c-18 -5 -22 -3 -17 9 4 10 19 16 40 16 19 0 34 5 34 10 0 6 6 10 14 10
7 0 16 9 19 20 3 11 10 20 16 20 6 0 8 -7 4 -16 -5 -14 -3 -15 15 -5 11 6 23
16 26 23 3 7 3 0 -1 -16 -5 -24 -3 -27 13 -22 17 5 19 0 19 -62 0 -51 6 -76
24 -108 34 -60 70 -78 141 -71 52 6 59 4 80 -18 29 -30 59 -32 93 -4 52 40 56
129 15 279 -12 41 -28 84 -37 94 -15 18 -15 19 7 14 20 -6 27 1 23 24 0 4 6 5
15 1 13 -5 13 -8 2 -15 -10 -8 -10 -9 2 -5 17 4 21 28 5 40 -6 4 -1 14 15 26
28 22 22 38 -8 22 -12 -6 -35 -11 -53 -11 l-32 0 23 24 c12 14 35 28 51 31 76
17 148 155 114 220 -9 16 -13 26 -9 22 4 -4 13 -2 20 4 10 8 11 17 3 33 -9 19
-8 19 11 -3 18 -20 24 -22 45 -13 13 6 30 24 38 39 16 31 27 223 13 222 -5 0
-13 5 -17 13 -7 10 -11 8 -15 -9 -4 -13 -11 -23 -16 -23 -5 0 -6 -5 -2 -12 4
-7 9 -24 10 -37 2 -17 0 -21 -5 -13 -5 9 -10 0 -15 -27 -3 -23 -11 -41 -16
-41 -6 0 -10 -6 -10 -13 0 -7 -24 -28 -54 -47 l-53 -34 23 -25 c28 -30 28 -30
10 -53 -13 -18 -106 -62 -113 -54 -11 11 10 46 27 46 23 0 50 10 50 19 0 3
-14 7 -30 8 -18 1 -28 -2 -25 -7 4 -6 1 -10 -4 -10 -6 0 -11 14 -11 30 0 21 5
30 16 30 13 0 14 3 5 13 -8 11 -6 18 9 32 28 26 25 41 -5 21 -35 -23 -40 -21
-52 26 -9 32 -9 44 0 50 33 19 113 76 134 96 13 12 28 20 33 17 4 -2 13 1 18
8 9 10 5 13 -16 13 -15 -1 -26 4 -25 10 1 7 -6 10 -17 7 -14 -4 -20 0 -20 11
0 22 27 31 45 16 8 -7 15 -8 15 -2 0 5 -7 15 -15 22 -11 9 -12 16 -5 25 8 9 6
14 -5 19 -9 3 -13 2 -10 -4 3 -6 1 -10 -4 -10 -6 0 -11 -7 -11 -15 0 -11 -7
-13 -29 -9 -23 5 -32 2 -40 -15 -10 -18 -91 -81 -105 -81 -2 0 -12 14 -21 32
-15 31 -15 33 7 50 22 16 22 18 5 30 -18 13 -18 15 3 38 20 24 20 24 10 3 -16
-33 -2 -28 38 13 l35 36 171 -5 c188 -5 293 -26 372 -72 59 -35 64 -33 49 23
-31 112 -85 187 -186 258 -55 39 -174 90 -264 113 -24 6 -57 27 -82 52 -24 23
-43 36 -43 30 0 -7 -5 -9 -10 -6 -6 4 -8 10 -5 15 3 5 -7 17 -22 27 -15 10
-41 30 -57 46 -42 40 -55 36 -49 -17 7 -58 -11 -112 -40 -120 -47 -12 -66 -7
-62 16 3 12 10 26 16 32 8 8 8 5 0 -11 -9 -18 -9 -23 2 -23 14 0 57 92 57 122
0 23 -39 48 -86 54 -38 5 -38 5 -14 -8z m73 -103 c-3 -9 -8 -14 -10 -11 -3 3
-2 9 2 15 9 16 15 13 8 -4z m197 -60 c0 -8 -7 -15 -15 -15 -16 0 -20 12 -8 23
11 12 23 8 23 -8z m-145 -77 c14 2 28 8 31 13 7 11 44 12 44 1 0 -5 11 -14 24
-21 19 -11 29 -10 56 4 38 20 104 15 127 -8 13 -13 13 -18 -2 -41 -22 -33 -10
-45 70 -70 33 -10 70 -22 82 -27 14 -5 33 -5 49 1 22 9 25 8 20 -6 -3 -8 -6
-20 -6 -24 0 -9 -50 -7 -125 4 -26 4 -33 3 -21 -2 33 -14 1 -24 -41 -13 -21 6
-59 10 -85 9 -26 0 -58 6 -70 14 -13 8 -50 16 -83 17 -33 1 -65 7 -71 12 -8 6
-14 5 -18 -6 -3 -10 -19 -15 -45 -15 -43 0 -50 12 -56 93 -3 30 0 37 15 37 10
0 23 12 30 29 12 29 13 29 31 12 12 -11 29 -16 44 -13z m-185 -27 c0 -5 3 -24
6 -42 l7 -34 -23 28 c-12 16 -29 26 -36 23 -23 -9 -16 10 9 22 28 13 37 14 37
3z m-33 -176 c29 5 37 1 76 -40 43 -44 73 -54 136 -45 13 1 13 -1 1 -15 -9
-11 -16 -13 -18 -6 -2 6 -17 -5 -33 -25 -17 -22 -27 -44 -24 -54 15 -49 13
-99 -6 -115 -10 -10 -16 -22 -12 -28 3 -6 1 -7 -5 -3 -7 4 -12 2 -12 -3 0 -6
-3 -11 -7 -10 -19 3 -53 -15 -53 -27 0 -8 -5 -14 -11 -14 -6 0 -7 -5 -2 -12
12 -21 12 -39 0 -35 -7 2 -11 11 -9 19 1 9 -5 21 -13 28 -10 9 -15 9 -15 1 0
-6 -5 -11 -11 -11 -5 0 -7 5 -4 10 6 10 -1 14 -45 24 -14 3 -40 19 -57 36 -21
20 -37 29 -45 24 -10 -6 -9 -3 1 9 12 15 11 17 -2 17 -9 0 -17 6 -20 13 -2 6
-3 4 -2 -5 2 -10 -1 -21 -6 -24 -15 -9 -10 79 6 106 8 14 14 38 15 54 0 39 56
154 78 158 9 2 28 -4 42 -15 18 -13 34 -17 57 -12z m620 9 c-3 -3 -12 -4 -19
-1 -8 3 -5 6 6 6 11 1 17 -2 13 -5z m-372 -124 c-17 -17 -31 -26 -33 -20 -5
14 18 41 29 34 5 -3 9 0 9 5 0 6 5 11 12 11 6 0 -1 -14 -17 -30z m59 9 c-3 -5
-10 -7 -15 -3 -5 3 -7 10 -3 15 3 5 10 7 15 3 5 -3 7 -10 3 -15z m-620 -130
c-3 -5 -10 -7 -15 -3 -5 3 -7 10 -3 15 3 5 10 7 15 3 5 -3 7 -10 3 -15z m665
-89 c-38 -37 -44 -39 -50 -23 -4 11 0 25 9 36 17 20 36 23 27 5 -4 -7 1 -4 10
7 9 11 21 19 26 18 5 -2 8 0 8 5 -3 17 4 26 8 10 3 -10 -12 -32 -38 -58z m101
35 c0 -2 -6 -5 -13 -8 -8 -3 -14 1 -14 8 0 7 6 11 14 8 7 -3 13 -6 13 -8z
m-1027 -18 c-2 -4 -2 -15 1 -24 5 -11 10 -13 20 -4 10 8 37 -1 112 -39 54 -27
103 -51 107 -53 4 -1 14 -29 21 -62 7 -33 16 -68 21 -77 6 -16 1 -18 -59 -15
-36 1 -66 5 -66 8 0 12 -74 36 -117 38 -33 1 -43 -2 -43 -14 0 -9 -9 -15 -22
-14 -13 0 -17 3 -10 6 17 7 15 19 -9 42 -13 12 -17 21 -10 26 6 3 11 0 11 -7
0 -10 2 -10 8 -1 6 10 20 9 65 -4 31 -8 57 -20 57 -24 0 -5 10 -9 23 -8 12 0
41 -3 65 -7 35 -5 42 -4 42 10 0 9 4 16 9 16 5 0 3 13 -5 29 -15 30 -58 64
-81 64 -7 0 -13 4 -13 10 0 5 -6 7 -12 4 -7 -2 -28 2 -45 10 -18 7 -36 14 -40
14 -5 1 -7 5 -6 10 2 4 -4 6 -12 3 -9 -4 -15 0 -15 7 0 8 -6 26 -14 41 -13 24
-13 26 4 25 10 -1 16 -5 13 -10z m982 -7 c-3 -5 -13 -10 -21 -10 -8 0 -14 5
-14 10 0 6 9 10 21 10 11 0 17 -4 14 -10z m-1005 -26 c0 -8 -8 -14 -17 -14
-14 0 -15 2 -4 9 8 5 10 14 6 21 -5 9 -4 11 3 6 7 -4 12 -14 12 -22z m528 -40
c2 -1 -4 -4 -13 -8 -9 -3 -13 -2 -10 4 3 6 2 10 -3 10 -6 0 -13 8 -16 17 -6
14 -4 14 16 -2 13 -11 24 -20 26 -21z m-611 -150 c-7 -7 -37 7 -37 17 0 6 9 5
21 -1 11 -7 19 -14 16 -16z m-48 3 c-2 -1 -11 -8 -21 -15 -12 -10 -18 -10 -24
-1 -4 7 -3 9 4 5 6 -3 13 -2 17 4 3 5 11 10 17 10 6 0 9 -1 7 -3z m117 -9 c4
-6 3 -8 -3 -5 -6 4 -13 0 -17 -8 -3 -8 -1 -17 4 -20 17 -11 11 -25 -11 -25
-14 0 -19 5 -16 14 3 7 1 18 -5 24 -6 6 -7 15 -4 21 9 14 43 14 52 -1z m63
-38 l-24 -19 28 -1 c15 0 27 -4 27 -9 0 -8 -60 -4 -68 4 -10 9 22 45 39 45 21
0 20 -1 -2 -20z m-129 6 c0 -3 -4 -8 -10 -11 -5 -3 -10 -1 -10 4 0 6 5 11 10
11 6 0 10 -2 10 -4z m190 -6 c-8 -5 -19 -10 -25 -10 -5 0 -3 5 5 10 8 5 20 10
25 10 6 0 3 -5 -5 -10z m90 -18 c7 2 15 -3 17 -9 5 -15 -23 -18 -32 -3 -3 5
-12 7 -20 3 -8 -3 -15 -1 -15 4 0 17 13 23 26 13 6 -6 17 -9 24 -8z m-62 -17
c-3 -3 -9 2 -12 12 -6 14 -5 15 5 6 7 -7 10 -15 7 -18z m429 -337 c41 -31 41
-40 -4 -53 -40 -12 -113 -9 -113 5 0 10 68 70 78 70 5 0 22 -10 39 -22z"/>
<path d="M1765 2310 c17 -4 48 -8 70 -8 l40 0 -40 9 c-22 4 -53 8 -70 7 l-30
0 30 -8z"/>
<path d="M1420 2629 c0 -5 5 -7 10 -4 6 3 10 8 10 11 0 2 -4 4 -10 4 -5 0 -10
-5 -10 -11z"/>
<path d="M1410 2600 c0 -5 5 -10 10 -10 6 0 10 5 10 10 0 6 -4 10 -10 10 -5 0
-10 -4 -10 -10z"/>
<path d="M795 2370 c3 -5 8 -10 11 -10 2 0 4 5 4 10 0 6 -5 10 -11 10 -5 0 -7
-4 -4 -10z"/>
<path d="M909 2303 c5 -10 22 -29 37 -43 24 -22 23 -20 -6 18 -35 44 -47 54
-31 25z"/>
<path d="M1011 2275 c1 -19 18 -51 18 -35 0 8 -4 22 -9 30 -5 8 -9 11 -9 5z"/>
<path d="M1000 2205 c13 -14 26 -25 28 -25 3 0 -5 11 -18 25 -13 14 -26 25
-28 25 -3 0 5 -11 18 -25z"/>
<path d="M940 2206 c0 -2 8 -10 18 -17 15 -13 16 -12 3 4 -13 16 -21 21 -21
13z"/>
<path d="M1659 2133 l-24 -28 30 25 c17 14 32 26 34 28 2 1 0 2 -6 2 -5 0 -20
-12 -34 -27z"/>
<path d="M1930 2130 c0 -5 5 -10 11 -10 5 0 7 5 4 10 -3 6 -8 10 -11 10 -2 0
-4 -4 -4 -10z"/>
<path d="M1926 2093 c-6 -14 -5 -15 5 -6 7 7 10 15 7 18 -3 3 -9 -2 -12 -12z"/>
<path d="M1775 1690 c-3 -6 1 -7 9 -4 18 7 21 14 7 14 -6 0 -13 -4 -16 -10z"/>
<path d="M510 1617 c0 -16 53 -102 69 -111 6 -4 11 -2 11 5 0 7 3 9 6 6 4 -4
14 2 23 12 24 27 54 40 89 39 17 -1 38 5 47 12 8 7 15 8 15 3 0 -5 17 -7 38
-4 l37 5 -30 7 c-16 4 -77 7 -135 8 -70 1 -113 6 -130 16 -31 18 -40 18 -40 2z"/>
<path d="M733 1540 c2 -24 13 -26 21 -4 3 9 12 14 19 11 8 -3 19 -2 26 2 6 4
-6 8 -28 9 -34 2 -40 -1 -38 -18z"/>
<path d="M875 1519 c18 -5 33 -5 39 1 7 7 -4 10 -29 9 -40 -1 -40 -1 -10 -10z"/>
<path d="M1750 1349 c0 -5 5 -7 10 -4 6 3 10 8 10 11 0 2 -4 4 -10 4 -5 0 -10
-5 -10 -11z"/>
<path d="M1260 1164 c0 -8 5 -12 10 -9 6 3 10 10 10 16 0 5 -4 9 -10 9 -5 0
-10 -7 -10 -16z"/>
<path d="M1402 780 c-39 -24 -52 -54 -52 -120 0 -68 36 -110 101 -117 108 -12
170 84 125 192 -26 62 -110 84 -174 45z m121 -23 c15 -19 21 -43 21 -80 1 -96
-34 -139 -100 -123 -62 16 -74 180 -16 224 27 20 72 10 95 -21z"/>
<path d="M2233 790 c-26 -11 -41 -56 -26 -79 5 -9 33 -32 62 -52 63 -42 76
-61 61 -89 -20 -37 -102 -22 -120 23 l-9 22 0 -22 c-2 -68 162 -71 170 -3 4
39 -5 53 -66 92 -47 31 -65 49 -65 64 0 56 71 58 108 4 l25 -35 -7 30 c-4 17
-11 34 -16 39 -12 13 -92 17 -117 6z"/>
<path d="M288 727 c-15 -34 -39 -89 -53 -122 -15 -33 -22 -55 -16 -50 6 6 26
46 45 90 19 44 38 79 43 78 4 -2 23 -38 41 -82 28 -67 38 -81 64 -90 41 -15
44 -14 25 7 -9 9 -36 64 -59 122 -24 57 -48 105 -53 107 -6 1 -22 -25 -37 -60z"/>
<path d="M502 668 l2 -123 5 105 6 105 54 -108 c29 -59 55 -107 56 -105 2 2
19 44 40 93 20 50 41 94 46 99 5 6 9 -23 9 -75 0 -87 15 -129 45 -129 11 0 12
6 5 26 -6 14 -10 72 -10 130 0 101 -1 104 -22 104 -19 0 -29 -14 -57 -86 -19
-47 -38 -87 -42 -90 -5 -3 -29 36 -54 86 -34 68 -50 90 -65 90 -19 0 -20 -6
-18 -122z"/>
<path d="M882 668 c-29 -66 -51 -122 -49 -125 3 -2 23 38 45 89 23 51 45 92
49 91 4 -1 20 -32 36 -69 32 -78 49 -100 83 -107 20 -4 22 -2 12 10 -7 8 -33
63 -58 121 -25 58 -50 107 -55 108 -6 2 -34 -51 -63 -118z"/>
<path d="M1105 769 c-4 -11 -5 -23 -2 -26 3 -2 8 5 12 16 5 18 14 21 66 21 32
0 59 -2 59 -5 0 -3 -31 -55 -70 -115 l-70 -110 30 0 c17 0 30 4 30 10 0 5 28
53 63 107 35 54 67 104 71 111 5 9 -15 12 -88 12 -87 0 -95 -2 -101 -21z"/>
<path d="M1659 771 c6 -11 12 -66 13 -123 l2 -103 3 93 c2 50 7 92 11 92 4 -1
36 -37 72 -81 107 -132 100 -133 98 17 -2 106 -3 113 -5 42 -2 -49 -7 -88 -11
-87 -4 0 -39 38 -78 82 -42 49 -80 83 -93 85 -20 3 -21 1 -12 -17z"/>
<path d="M2006 737 c-13 -29 -37 -83 -54 -120 -17 -37 -28 -65 -23 -63 4 3 25
43 45 90 21 48 42 86 45 86 4 0 13 -17 20 -37 23 -64 49 -119 63 -131 7 -6 27
-13 43 -17 28 -7 29 -6 10 8 -11 8 -40 65 -65 126 -25 61 -49 111 -53 111 -4
0 -19 -24 -31 -53z"/>
<path d="M654 168 l-19 -23 23 19 c21 18 27 26 19 26 -2 0 -12 -10 -23 -22z"/>
<path d="M799 173 c-13 -16 -12 -17 4 -4 16 13 21 21 13 21 -2 0 -10 -8 -17
-17z"/>
<path d="M609 163 c-13 -16 -12 -17 4 -4 16 13 21 21 13 21 -2 0 -10 -8 -17
-17z"/>
<path d="M819 153 l-24 -28 28 24 c15 14 27 26 27 28 0 8 -8 1 -31 -24z"/>
<path d="M1140 156 c0 -2 7 -7 16 -10 8 -3 12 -2 9 4 -6 10 -25 14 -25 6z"/>
<path d="M581 122 c-7 -13 -6 -19 2 -19 7 0 13 9 13 19 0 10 -1 18 -3 18 -1 0
-7 -8 -12 -18z"/>
<path d="M767 121 c-4 -17 -3 -21 5 -13 5 5 8 16 6 23 -3 8 -7 3 -11 -10z"/>
<path d="M1639 123 c-13 -17 -13 -17 6 -3 11 8 22 16 24 17 2 2 0 3 -6 3 -6 0
-17 -8 -24 -17z"/>
<path d="M1819 103 c-13 -16 -12 -17 4 -4 16 13 21 21 13 21 -2 0 -10 -8 -17
-17z"/>
<path d="M921 101 c-8 -5 -9 -11 -3 -15 5 -3 12 1 16 9 6 17 6 18 -13 6z"/>
<path d="M1306 101 c-3 -5 1 -14 8 -20 12 -10 13 -8 9 8 -6 23 -9 25 -17 12z"/>
<path d="M956 84 c-5 -14 -4 -15 9 -4 17 14 19 20 6 20 -5 0 -12 -7 -15 -16z"/>
<path d="M1463 85 c0 -8 4 -15 9 -15 4 0 8 7 8 15 0 8 -4 15 -8 15 -5 0 -9 -7
-9 -15z"/>
<path d="M1830 80 c-9 -6 -10 -10 -3 -10 6 0 15 5 18 10 8 12 4 12 -15 0z"/>
<path d="M1667 69 c7 -7 15 -10 18 -7 3 3 -2 9 -12 12 -14 6 -15 5 -6 -5z"/>
</g>
</svg>
