<?xml version="1.0" standalone="no"?>
<!DOCTYPE svg PUBLIC "-//W3C//DTD SVG 20010904//EN"
 "http://www.w3.org/TR/2001/REC-SVG-20010904/DTD/svg10.dtd">
<svg version="1.0" xmlns="http://www.w3.org/2000/svg"
 width="273.000000pt" height="300.000000pt" viewBox="0 0 273.000000 300.000000"
 preserveAspectRatio="xMidYMid meet">

<g transform="translate(0.000000,300.000000) scale(0.100000,-0.100000)"
fill="#000000" stroke="none">
<path d="M1500 2690 c0 -5 12 -10 26 -10 19 0 25 -4 22 -17 -2 -10 -10 -18
-18 -18 -8 0 -21 -11 -27 -24 -18 -33 -16 -50 3 -23 18 26 39 30 25 5 -5 -10
-18 -39 -28 -65 -16 -44 -33 -63 -33 -38 0 6 -13 10 -29 10 -16 0 -41 4 -56
10 l-26 10 31 56 c32 60 30 78 -10 72 -28 -4 -67 -75 -72 -133 -4 -43 -36 -47
-44 -6 -4 17 -11 34 -15 37 -13 7 -11 -50 1 -62 11 -11 1 -23 -57 -70 -36 -28
-42 -22 -17 15 14 20 15 28 4 62 -11 31 -11 47 -1 80 7 22 11 43 8 45 -8 8
-57 -38 -72 -66 -17 -33 -20 -76 -5 -85 6 -3 10 -14 10 -24 0 -10 7 -31 15
-48 12 -24 13 -37 4 -62 -6 -17 -15 -31 -20 -31 -12 0 -89 119 -89 138 0 12
-3 12 -15 2 -20 -17 -20 3 1 35 9 13 14 31 12 40 -2 13 -10 10 -38 -13 -28
-24 -32 -32 -22 -44 6 -8 9 -18 6 -21 -4 -3 1 -13 10 -22 9 -9 16 -22 16 -29
0 -25 39 -101 66 -130 24 -26 27 -37 30 -115 3 -102 -5 -123 -37 -103 -15 10
-24 11 -32 3 -8 -8 -6 -11 6 -11 10 0 17 -8 17 -20 0 -13 7 -20 18 -20 24 0
32 -8 25 -26 -7 -20 -27 -17 -48 6 -10 11 -22 20 -27 20 -16 0 14 -42 33 -47
18 -5 27 -23 11 -23 -4 0 -8 -25 -8 -56 -1 -35 -6 -59 -15 -64 -10 -7 -8 -13
9 -27 15 -12 24 -31 25 -55 1 -20 6 -40 10 -44 4 -4 7 -17 7 -29 0 -12 3 -25
7 -29 4 -4 8 -14 8 -23 0 -16 14 -27 48 -37 21 -7 20 -53 -1 -49 -15 4 -16
-13 -1 -23 6 -3 15 0 20 7 6 11 9 10 15 -4 3 -9 4 -23 1 -31 -3 -9 4 -21 19
-30 19 -13 24 -25 23 -54 -1 -51 -12 -84 -29 -93 -73 -37 -105 -49 -122 -44
-11 4 -38 -2 -63 -14 -51 -24 -79 -27 -73 -8 3 6 19 14 36 17 17 3 41 13 52
23 11 9 29 17 40 17 11 0 29 9 40 20 11 11 25 20 30 20 6 0 10 5 10 10 0 6
-10 10 -21 10 -12 0 -38 5 -59 11 -33 10 -41 9 -76 -13 -41 -26 -123 -49 -161
-44 -12 1 -28 8 -37 15 -27 23 -19 -11 13 -56 35 -48 81 -83 110 -83 12 0 21
-4 21 -10 0 -23 200 -5 208 19 2 6 13 11 24 11 11 0 22 8 25 18 7 26 47 52 64
41 11 -7 2 -20 -42 -61 -48 -46 -57 -60 -63 -100 -5 -32 -12 -48 -22 -48 -8 0
-14 -4 -14 -10 0 -5 -8 -10 -17 -10 -20 -1 -69 -37 -61 -46 8 -7 53 12 72 31
16 16 18 16 37 -1 11 -10 28 -31 37 -46 22 -38 51 -38 44 0 -2 15 -9 32 -13
38 -13 17 1 76 25 101 24 26 38 30 30 8 -4 -8 -1 -15 5 -15 6 0 11 5 11 10 0
6 7 10 15 10 8 0 15 7 15 16 0 12 6 15 24 10 16 -4 30 0 40 9 8 8 18 15 22 15
5 0 3 -5 -4 -12 -17 -17 -15 -25 8 -31 18 -5 20 -14 20 -77 0 -92 24 -138 87
-171 38 -20 50 -21 83 -13 41 11 58 6 94 -28 29 -26 54 -22 91 15 40 40 51 96
35 177 -6 30 -14 70 -17 88 -3 18 -9 35 -14 38 -5 3 -9 15 -9 28 0 12 -6 31
-14 41 -19 26 -10 50 30 80 37 28 47 53 15 35 -23 -12 -71 -13 -71 -2 0 13 42
47 80 65 75 34 117 116 111 216 -1 24 -2 24 -34 -11 -28 -31 -85 -58 -121 -58
-5 0 -5 15 -1 33 4 17 9 54 10 81 2 27 9 53 17 58 8 5 4 6 -13 3 -25 -6 -27
-4 -39 44 -12 50 -8 71 12 71 5 0 23 11 39 24 39 33 14 40 -31 9 -32 -21 -35
-22 -38 -6 -2 10 -8 22 -13 27 -12 13 85 68 105 60 9 -3 16 -13 16 -21 0 -12
3 -13 14 -4 10 8 16 9 21 1 9 -15 24 -3 21 18 -2 10 -13 18 -30 20 -21 3 -26
7 -21 23 4 13 2 19 -9 19 -9 0 -16 5 -16 11 0 6 -21 -8 -47 -31 -74 -64 -80
-66 -103 -28 -23 38 -24 44 -10 53 16 10 12 25 -5 19 -8 -4 -15 -1 -15 5 0 6
5 11 10 11 6 0 10 10 10 22 0 17 -3 19 -12 10 -18 -18 -28 -15 -28 9 0 12 -5
19 -12 16 -7 -2 -12 -11 -12 -20 1 -9 -2 -14 -8 -11 -5 3 -15 1 -22 -5 -10 -8
-12 -30 -8 -81 3 -42 1 -70 -5 -70 -5 0 -15 -12 -21 -26 -7 -14 -17 -22 -22
-19 -6 3 -17 0 -25 -8 -8 -9 -20 -17 -26 -19 -7 -2 -12 -17 -13 -33 -1 -15 -7
-30 -14 -33 -9 -3 -12 3 -10 14 2 16 -4 20 -39 22 -24 2 -43 8 -43 14 0 6 9 8
20 5 11 -3 20 -1 20 4 0 17 -68 10 -72 -7 -2 -11 -12 -4 -33 24 -16 21 -38 43
-49 48 -30 13 -41 78 -22 129 8 22 17 58 21 80 7 42 38 109 63 138 17 19 46
15 70 -10 10 -10 27 -12 58 -7 35 5 44 3 44 -9 0 -8 14 -28 30 -44 25 -24 44
-32 93 -38 34 -4 71 -7 82 -7 265 7 416 7 440 1 17 -4 57 -13 90 -19 33 -7 68
-16 77 -21 10 -5 22 -9 28 -9 6 0 28 -12 50 -26 22 -15 44 -24 47 -20 8 7 -16
81 -47 151 -29 63 -183 205 -224 205 -6 0 -16 4 -22 9 -14 13 -178 71 -201 71
-11 0 -38 16 -59 35 -44 41 -48 42 -39 15 5 -17 2 -20 -24 -20 -25 0 -29 3
-24 18 3 9 13 23 21 30 9 6 11 12 5 12 -7 0 -18 6 -25 13 -36 34 -103 87 -110
87 -5 0 -6 -10 -4 -22 3 -13 7 -42 10 -65 5 -35 4 -41 -9 -37 -9 4 -15 0 -15
-10 0 -24 -44 -48 -74 -40 -19 4 -26 13 -26 31 0 19 4 24 15 19 10 -3 18 1 21
12 3 9 9 26 14 37 18 45 19 55 2 64 -10 6 -12 11 -4 11 20 0 14 20 -7 20 -11
0 -23 5 -26 10 -3 6 -15 10 -26 10 -10 0 -19 -4 -19 -10z m209 -232 c19 -23
42 -25 134 -12 48 6 107 -9 107 -28 0 -5 -7 -19 -15 -32 -12 -18 -13 -26 -2
-39 14 -20 178 -67 207 -60 16 4 20 0 20 -21 0 -22 -4 -26 -29 -26 -16 0 -36
-3 -45 -6 -11 -4 -16 -1 -16 10 0 9 -4 16 -10 16 -5 0 -10 -9 -10 -20 0 -20
-11 -26 -24 -12 -8 8 -24 9 -131 12 -42 1 -82 9 -100 18 -32 17 -157 22 -225
9 -34 -7 -37 -5 -48 26 -17 49 -16 127 3 127 8 0 19 9 25 21 10 18 18 20 59
14 37 -5 50 -3 60 9 17 21 19 20 40 -6z m-255 -106 c11 -18 -2 -14 -34 10 -36
26 -37 36 -7 47 19 7 23 5 28 -19 3 -15 9 -32 13 -38z m56 -527 c-7 -9 -15
-13 -18 -10 -3 2 1 11 8 20 7 9 15 13 18 10 3 -2 -1 -11 -8 -20z m-162 -53 c2
-7 -2 -10 -12 -6 -9 3 -16 11 -16 16 0 13 23 5 28 -10z m71 -468 c3 -16 1 -17
-13 -5 -19 16 -21 34 -3 29 6 -3 14 -13 16 -24z m-38 -75 c43 -34 49 -49 20
-49 -11 0 -23 -5 -27 -11 -7 -12 -110 -7 -122 6 -10 10 12 38 48 63 18 12 35
22 38 22 2 0 22 -14 43 -31z m89 -50 c0 -5 -9 -9 -20 -9 -22 0 -27 16 -7 23
15 5 27 -1 27 -14z m70 11 c0 -5 -5 -10 -11 -10 -5 0 -7 5 -4 10 3 6 8 10 11
10 2 0 4 -4 4 -10z"/>
<path d="M756 2251 c-8 -12 48 -134 69 -151 11 -9 16 -6 25 10 10 18 9 21 -7
18 -13 -2 -19 4 -21 25 -2 15 -12 33 -23 40 -10 6 -19 19 -19 27 0 23 -16 44
-24 31z"/>
<path d="M900 2150 c0 -5 5 -10 11 -10 5 0 7 5 4 10 -3 6 -8 10 -11 10 -2 0
-4 -4 -4 -10z"/>
<path d="M1714 2112 c-6 -4 -15 -18 -19 -31 -5 -17 -4 -22 6 -19 8 3 14 9 14
14 0 5 4 15 9 22 10 16 4 23 -10 14z"/>
<path d="M662 2081 c-23 -22 -32 -39 -33 -63 -1 -18 -4 -44 -8 -58 -6 -19 -2
-30 16 -48 14 -12 28 -20 33 -17 4 3 24 -2 44 -10 46 -19 46 -19 46 11 0 25 2
26 38 21 22 -4 32 -3 23 2 -7 5 -11 13 -8 18 11 17 -13 82 -32 88 -9 3 -28 23
-40 45 -12 22 -28 40 -34 40 -7 0 -27 -13 -45 -29z"/>
<path d="M870 2095 c10 -12 10 -15 -1 -15 -7 0 -3 -10 12 -26 14 -15 31 -23
41 -21 10 3 15 1 12 -5 -6 -9 63 -78 79 -78 11 0 8 10 -7 26 -8 7 -12 24 -9
36 4 22 4 22 -11 4 -18 -22 -36 -14 -29 14 5 21 -6 35 -49 63 -35 22 -55 23
-38 2z m40 -25 c0 -5 -7 -10 -15 -10 -8 0 -15 5 -15 10 0 6 7 10 15 10 8 0 15
-4 15 -10z"/>
<path d="M873 1933 c9 -9 20 -13 24 -9 4 4 1 11 -7 16 -25 16 -35 11 -17 -7z"/>
<path d="M2033 1942 c-6 -4 -10 -22 -9 -41 1 -18 -3 -35 -8 -37 -6 -2 -12 -16
-12 -30 -3 -46 -24 -79 -70 -108 -32 -20 -42 -31 -33 -37 8 -4 10 -11 6 -16
-4 -4 -17 -2 -27 5 -23 14 -26 7 -6 -14 19 -18 36 -18 66 3 17 12 25 13 28 5
5 -15 32 -16 32 -2 0 6 -10 15 -22 19 -22 8 -22 9 -4 17 13 5 23 2 32 -10 11
-16 14 -16 30 9 13 20 18 51 20 131 2 103 -2 119 -23 106z"/>
<path d="M955 1870 c3 -5 11 -10 16 -10 6 0 7 5 4 10 -3 6 -11 10 -16 10 -6 0
-7 -4 -4 -10z"/>
<path d="M777 1840 c-4 -15 0 -20 13 -20 13 0 17 5 13 20 -3 11 -9 20 -13 20
-4 0 -10 -9 -13 -20z"/>
<path d="M980 1829 c0 -16 4 -19 23 -13 31 9 34 14 17 24 -24 16 -40 11 -40
-11z"/>
<path d="M590 1823 c-13 -3 -30 -12 -37 -21 -17 -23 -16 -97 2 -132 16 -32 35
-40 35 -16 0 8 12 28 26 43 24 26 27 27 38 10 16 -21 36 -22 36 -1 0 8 6 22
14 30 13 12 15 11 21 -6 7 -23 16 -25 33 -8 8 8 15 8 26 -1 10 -9 16 -9 21 -1
7 12 -11 29 -55 52 -14 7 -27 16 -30 19 -5 6 -98 40 -103 38 -1 -1 -13 -4 -27
-6z"/>
<path d="M820 1805 c0 -5 24 -16 68 -29 30 -10 28 8 -3 22 -27 12 -65 16 -65
7z"/>
<path d="M941 1771 c-10 -6 -9 -10 3 -14 8 -3 18 -2 21 3 8 13 -9 20 -24 11z"/>
<path d="M830 1715 c0 -11 50 -36 61 -29 8 4 4 11 -12 20 -24 13 -49 18 -49 9z"/>
<path d="M642 1670 c13 -20 28 -27 28 -12 0 10 -22 32 -32 32 -5 0 -3 -9 4
-20z"/>
<path d="M735 1680 c3 -5 10 -10 16 -10 5 0 9 5 9 10 0 6 -7 10 -16 10 -8 0
-12 -4 -9 -10z"/>
<path d="M950 1670 c19 -13 30 -13 30 0 0 6 -10 10 -22 10 -19 0 -20 -2 -8
-10z"/>
<path d="M677 1640 c-23 -27 -22 -30 13 -30 32 0 40 19 17 38 -10 9 -17 6 -30
-8z"/>
<path d="M1000 1649 c0 -5 5 -7 10 -4 6 3 10 8 10 11 0 2 -4 4 -10 4 -5 0 -10
-5 -10 -11z"/>
<path d="M610 1635 c0 -8 5 -15 10 -15 6 0 10 7 10 15 0 8 -4 15 -10 15 -5 0
-10 -7 -10 -15z"/>
<path d="M763 1628 c10 -16 9 -22 -7 -34 -19 -13 -19 -14 7 -14 15 0 27 4 27
9 0 5 2 15 5 23 3 7 -6 18 -19 24 -23 11 -24 10 -13 -8z"/>
<path d="M885 1640 c-3 -5 -17 -10 -31 -10 -13 0 -24 -5 -24 -11 0 -7 -8 -18
-17 -25 -17 -12 -17 -13 -1 -14 9 0 20 5 23 10 12 19 45 11 45 -10 0 -17 7
-20 49 -20 69 0 111 -10 111 -27 0 -8 5 -11 10 -8 6 3 10 15 10 26 0 10 5 19
10 19 17 0 11 25 -10 38 -17 10 -22 9 -36 -12 -8 -14 -21 -23 -29 -20 -17 7
-27 45 -14 60 7 8 3 10 -15 7 -13 -3 -26 -13 -29 -23 -4 -14 -1 -17 12 -12 14
5 14 4 2 -11 -17 -21 -35 -22 -52 -1 -11 14 -11 18 4 29 9 7 17 15 17 19 0 10
-28 7 -35 -4z"/>
<path d="M550 1538 c0 -18 38 -80 58 -95 20 -16 42 -17 42 -2 0 7 11 22 25 35
20 18 30 21 48 15 14 -5 30 -5 40 0 33 19 16 29 -45 28 -71 -1 -136 9 -144 22
-8 13 -24 11 -24 -3z"/>
<path d="M913 1443 c9 -2 25 -2 35 0 9 3 1 5 -18 5 -19 0 -27 -2 -17 -5z"/>
<path d="M704 1424 c4 -11 -1 -18 -14 -21 -11 -3 -20 -9 -20 -13 0 -10 50 -31
60 -25 5 3 18 -3 29 -14 17 -17 20 -18 25 -3 3 10 9 23 12 31 4 8 2 11 -4 7
-16 -10 -60 14 -65 35 -3 11 -11 19 -17 19 -7 0 -10 -7 -6 -16z"/>
<path d="M1790 1260 c-8 -5 -10 -10 -5 -10 6 0 17 5 25 10 8 5 11 10 5 10 -5
0 -17 -5 -25 -10z"/>
<path d="M1255 940 c-3 -5 -1 -10 4 -10 6 0 11 5 11 10 0 6 -2 10 -4 10 -3 0
-8 -4 -11 -10z"/>
<path d="M650 712 c0 -11 7 -25 16 -32 8 -7 32 -49 52 -92 28 -60 38 -74 44
-61 9 23 10 48 1 40 -3 -4 -25 30 -47 75 -41 81 -66 108 -66 70z"/>
<path d="M840 715 c-10 -12 -10 -21 -2 -38 7 -12 13 -53 14 -91 2 -46 7 -71
16 -74 10 -3 12 20 10 104 -3 108 -12 131 -38 99z"/>
<path d="M1310 712 c0 -9 -25 -54 -55 -99 -30 -46 -55 -87 -55 -93 0 -5 9 -10
21 -10 11 0 18 4 14 9 -3 6 24 55 60 110 62 97 64 101 40 101 -17 0 -25 -6
-25 -18z"/>
<path d="M473 700 c-10 -14 -9 -21 2 -30 13 -11 41 -78 38 -91 -3 -11 56 -69
69 -69 9 0 10 2 1 8 -6 4 -30 49 -52 101 -23 52 -42 96 -44 97 -1 2 -8 -5 -14
-16z"/>
<path d="M1031 702 c-7 -13 -7 -23 -2 -27 5 -3 19 -31 31 -63 20 -54 54 -102
72 -102 4 0 -1 17 -11 38 -11 20 -27 55 -36 77 -45 105 -42 100 -54 77z"/>
<path d="M1697 703 c4 -9 25 -37 48 -62 23 -25 58 -64 78 -86 32 -35 36 -37
37 -19 0 12 -17 39 -37 61 -21 21 -55 58 -75 81 -38 43 -62 55 -51 25z"/>
<path d="M2010 700 c-10 -18 -8 -25 8 -41 11 -10 23 -33 27 -51 9 -42 51 -98
73 -98 12 0 13 3 5 8 -7 5 -31 51 -54 103 -22 51 -42 96 -44 97 -2 2 -9 -6
-15 -18z"/>
<path d="M1428 685 c-27 -37 -23 -104 8 -140 17 -20 23 -24 18 -10 -13 34 -17
136 -5 148 6 6 11 15 11 19 0 15 -15 7 -32 -17z"/>
<path d="M1576 695 c14 -35 16 -122 4 -145 -19 -36 -3 -35 19 1 29 48 27 101
-5 136 -19 21 -24 23 -18 8z"/>
<path d="M2183 696 c-15 -27 6 -58 62 -90 48 -29 60 -49 45 -77 -6 -10 -7 -19
-2 -19 17 0 32 25 32 52 0 22 -11 35 -59 68 -38 25 -61 48 -63 62 -3 22 -4 22
-15 4z"/>
<path d="M531 127 c-13 -21 -12 -21 5 -5 10 10 16 20 13 22 -3 3 -11 -5 -18
-17z"/>
</g>
</svg>
